<svg width="22" height="22" viewBox="0 0 22 22" fill="none" xmlns="http://www.w3.org/2000/svg">
<path d="M6.88123 10.812C6.88123 9.996 7.06523 9.264 7.43323 8.616C7.80123 7.96 8.30123 7.448 8.93323 7.08C9.57323 6.712 10.2812 6.528 11.0572 6.528C11.9692 6.528 12.7652 6.748 13.4452 7.188C14.1252 7.628 14.6212 8.252 14.9332 9.06H13.6252C13.3932 8.556 13.0572 8.168 12.6172 7.896C12.1852 7.624 11.6652 7.488 11.0572 7.488C10.4732 7.488 9.94923 7.624 9.48523 7.896C9.02123 8.168 8.65723 8.556 8.39323 9.06C8.12923 9.556 7.99723 10.14 7.99723 10.812C7.99723 11.476 8.12923 12.06 8.39323 12.564C8.65723 13.06 9.02123 13.444 9.48523 13.716C9.94923 13.988 10.4732 14.124 11.0572 14.124C11.6652 14.124 12.1852 13.992 12.6172 13.728C13.0572 13.456 13.3932 13.068 13.6252 12.564H14.9332C14.6212 13.364 14.1252 13.984 13.4452 14.424C12.7652 14.856 11.9692 15.072 11.0572 15.072C10.2812 15.072 9.57323 14.892 8.93323 14.532C8.30123 14.164 7.80123 13.656 7.43323 13.008C7.06523 12.36 6.88123 11.628 6.88123 10.812Z" fill="#111827"/>
<rect x="0.5" y="0.5" width="21" height="21" rx="10.5" stroke="#111827"/>
</svg>
