<svg width="24" height="20" viewBox="0 0 24 20" fill="none" xmlns="http://www.w3.org/2000/svg">
<path d="M3.17938 17.0224V17.827H3.98397H7.32304H7.32807H8.13266V17.0224V7.80688V7.00229H7.32807H7.06047C7.83327 6.59032 8.39416 5.84053 8.39416 4.88879C8.39416 3.41874 7.04313 2.42472 5.65351 2.42472C4.25741 2.42472 2.91286 3.41998 2.91286 4.88879C2.91286 5.83798 3.47437 6.58942 4.24843 7.00229H3.98397H3.17938V7.80688V17.0224ZM19.8395 17.827H20.6441V17.0224V11.9707C20.6441 10.7005 20.4927 9.37489 19.7509 8.36669C18.9666 7.30078 17.672 6.77384 15.8316 6.77384C14.8916 6.77384 14.0801 6.99608 13.4279 7.34169V7.00229H12.6233H9.42002H8.61542V7.80688V17.0224V17.827H9.42002H12.7591H13.5637V17.0224V12.462C13.5637 11.8836 13.6362 11.4966 13.7863 11.2635C13.8869 11.1072 14.0965 10.9003 14.7655 10.9003C15.0863 10.9003 15.2561 10.9644 15.3441 11.0172C15.4261 11.0664 15.4895 11.1366 15.5434 11.2536C15.6765 11.5422 15.6959 11.967 15.6959 12.5396V17.0224V17.827H16.5004H19.8395ZM2.11832 1.2753H21.4336C21.9882 1.2753 22.2382 1.64602 22.2382 1.86294V18.3887C22.2382 18.6057 21.9882 18.9764 21.4336 18.9764H2.11832C1.56717 18.9764 1.31875 18.6087 1.31875 18.3887V1.86294C1.31875 1.64301 1.56717 1.2753 2.11832 1.2753Z" fill="#111827" stroke="#111827" stroke-width="1.60919"/>
</svg>
